<svg width="270" height="270" viewBox="0 0 270 270" fill="none" xmlns="http://www.w3.org/2000/svg">
<g filter="url(#filter0_d_329_4)">
<path d="M10.7284 159.672C9.13237 159.672 7.70437 158.55 7.37677 156.925C4.41717 142.243 3.98757 127.35 6.10077 112.661C8.14277 98.4623 12.508 84.7615 19.074 71.9387C19.9356 70.2563 21.998 69.5903 23.6804 70.4523C25.3628 71.3139 26.0284 73.3763 25.1668 75.0587C18.946 87.2075 14.8104 100.186 12.876 113.635C10.8744 127.549 11.282 141.659 14.0868 155.573C14.4604 157.425 13.2608 159.231 11.408 159.604C11.18 159.65 10.9524 159.672 10.7284 159.672Z" fill="url(#paint0_linear_329_4)"/>
<path d="M32.6128 59.8764C31.9128 59.8764 31.2068 59.6624 30.5984 59.2184C29.0712 58.1044 28.7368 55.9632 29.8508 54.4364C49.0664 28.102 77.2632 10.0476 109.248 3.59957C137.626 -2.12203 166.327 1.57837 192.25 14.302C193.946 15.1348 194.647 17.1856 193.814 18.8824C192.981 20.5792 190.931 21.2796 189.234 20.4468C164.679 8.39436 137.488 4.88917 110.6 10.31C80.2984 16.4188 53.5848 33.5228 35.3804 58.4708C34.7104 59.3892 33.6688 59.8764 32.6128 59.8764Z" fill="url(#paint1_linear_329_4)"/>
<path d="M259.211 109.571C257.615 109.571 256.187 108.449 255.859 106.824C249.584 75.6906 231.816 48.5006 205.828 30.2634C204.281 29.1774 203.907 27.043 204.992 25.4962C206.079 23.9482 208.213 23.5746 209.76 24.6606C237.191 43.911 255.946 72.6102 262.57 105.472C262.943 107.325 261.744 109.13 259.891 109.503C259.663 109.549 259.435 109.571 259.211 109.571Z" fill="url(#paint2_linear_329_4)"/>
<path d="M261.785 137.171C261.763 137.171 261.741 137.171 261.719 137.17C259.829 137.134 258.326 135.573 258.362 133.683C258.533 124.703 257.714 115.661 255.929 106.809C255.555 104.957 256.754 103.151 258.607 102.777C260.462 102.403 262.265 103.603 262.638 105.455C264.523 114.795 265.386 124.335 265.206 133.813C265.171 135.681 263.645 137.171 261.785 137.171Z" fill="url(#paint3_linear_329_4)"/>
<path d="M12.0089 165.068C10.4705 165.068 9.07249 164.023 8.68809 162.463C8.22649 160.587 7.80729 158.721 7.44249 156.917C7.06809 155.064 8.26689 153.258 10.1193 152.884C11.9745 152.509 13.7777 153.708 14.1521 155.561C14.4977 157.272 14.8953 159.043 15.3345 160.826C15.7865 162.662 14.6653 164.516 12.8297 164.968C12.5553 165.035 12.2797 165.068 12.0089 165.068Z" fill="url(#paint4_linear_329_4)"/>
<path d="M102.251 257.081C101.449 257.081 100.644 256.801 99.9936 256.23C98.5736 254.982 98.434 252.82 99.6816 251.4C113.547 235.618 123.828 216.609 129.414 196.426C135.27 175.266 136.022 153.546 131.649 131.869C131.275 130.016 132.474 128.211 134.327 127.837C136.18 127.462 137.985 128.663 138.358 130.515C142.947 153.256 142.157 176.046 136.011 198.252C130.151 219.425 119.367 239.365 104.823 255.918C104.147 256.688 103.202 257.081 102.251 257.081Z" fill="url(#paint5_linear_329_4)"/>
<path d="M85.8658 251.471C85.0042 251.471 84.1418 251.147 83.4762 250.498C82.123 249.178 82.0958 247.012 83.4162 245.658C95.0918 233.688 104.093 219.724 110.169 204.154C110.856 202.394 112.842 201.524 114.601 202.21C116.362 202.898 117.233 204.882 116.545 206.643C110.134 223.072 100.636 237.807 88.3158 250.438C87.6454 251.126 86.7558 251.471 85.8658 251.471Z" fill="url(#paint6_linear_329_4)"/>
<path d="M119.995 260.499C119.257 260.499 118.515 260.262 117.889 259.773C116.4 258.609 116.136 256.458 117.3 254.969C145.257 219.193 156.149 173.184 147.183 128.74L146.953 127.598C146.119 124.805 144.352 122.413 141.894 120.78C139.112 118.931 135.777 118.278 132.505 118.938C126.312 120.186 122.108 125.838 122.495 131.976L122.831 133.647C126.392 151.317 126.299 169.143 122.553 186.63C122.157 188.478 120.337 189.654 118.49 189.259C116.641 188.864 115.464 187.044 115.86 185.196C119.175 169.721 119.469 153.96 116.741 138.3L116.671 138.312L116.007 135.02C113.9 124.56 120.693 114.335 131.151 112.228C136.215 111.204 141.376 112.217 145.682 115.078C149.987 117.938 152.921 122.304 153.944 127.37L154.547 130.355L154.468 130.381C162.758 175.853 151.255 222.634 122.693 259.184C122.019 260.047 121.011 260.499 119.995 260.499Z" fill="url(#paint7_linear_329_4)"/>
<path d="M70.8948 243.963C69.9804 243.963 69.0688 243.599 68.3948 242.879C67.1036 241.499 67.1756 239.333 68.556 238.041C94.0072 214.231 106.42 179.469 101.759 145.052C101.505 143.179 102.818 141.455 104.691 141.201C106.566 140.947 108.288 142.261 108.542 144.134C113.5 180.743 100.3 217.718 73.2324 243.04C72.5724 243.657 71.7328 243.963 70.8948 243.963Z" fill="url(#paint8_linear_329_4)"/>
<path d="M169.541 162.5C167.656 162.5 166.124 160.973 166.119 159.086C166.09 147.931 164.945 136.666 162.718 125.606L162.451 124.282C160.735 117.422 156.583 111.532 150.654 107.592C144.351 103.403 136.794 101.921 129.376 103.418C118.242 105.663 109.548 114.298 107.226 125.415C106.84 127.266 105.027 128.454 103.176 128.066C101.326 127.68 100.139 125.867 100.526 124.017C103.407 110.215 114.2 99.4951 128.022 96.7079C137.233 94.8491 146.616 96.6899 154.443 101.891C162.269 107.092 167.602 115.03 169.457 124.242L170.01 126.985L169.96 127.006C171.926 137.618 172.936 148.39 172.964 159.068C172.969 160.958 171.441 162.494 169.551 162.499C169.548 162.5 169.545 162.5 169.541 162.5Z" fill="url(#paint9_linear_329_4)"/>
<path d="M139.021 261.309C138.356 261.309 137.683 261.115 137.092 260.71C135.532 259.644 135.132 257.514 136.2 255.953C151.925 232.968 161.894 206.283 165.029 178.785C165.243 176.907 166.942 175.558 168.817 175.772C170.695 175.986 172.044 177.682 171.83 179.56C168.569 208.163 158.202 235.915 141.849 259.818C141.186 260.787 140.113 261.309 139.021 261.309Z" fill="url(#paint10_linear_329_4)"/>
<path d="M57.3682 234.826C56.4094 234.826 55.4562 234.425 54.7794 233.644C53.5418 232.215 53.697 230.053 55.1258 228.816C67.2054 218.354 76.3966 204.855 81.7054 189.779C86.8042 175.3 88.1554 159.725 85.657 144.531L85.6294 144.536L84.9722 141.278C82.2778 127.92 84.9462 114.314 92.4874 102.965C100.027 91.6164 111.537 83.8836 124.895 81.1904C129.541 80.2532 134.273 79.9628 138.963 80.3268C140.848 80.4736 142.257 82.12 142.11 84.0044C141.963 85.8888 140.321 87.2968 138.433 87.1512C134.374 86.8348 130.275 87.0876 126.248 87.9C114.682 90.232 104.717 96.9272 98.189 106.753C92.1834 115.791 89.7474 126.484 91.211 137.141L91.7694 139.91C95.2842 157.338 94.0366 175.369 88.1618 192.052C82.4586 208.248 72.5846 222.75 59.607 233.99C58.9598 234.551 58.1622 234.826 57.3682 234.826Z" fill="url(#paint11_linear_329_4)"/>
<path d="M159.227 259.01C158.638 259.01 158.042 258.859 157.499 258.54C155.868 257.583 155.322 255.486 156.278 253.856C179.536 214.211 187.337 167.552 178.246 122.473L177.947 120.99C175.087 108.948 167.322 98.6601 156.462 92.6029C154.811 91.6821 154.219 89.5973 155.14 87.9465C156.061 86.2961 158.145 85.7037 159.796 86.6245C172.846 93.9033 182.025 106.473 184.98 121.11L185.567 124.017L185.521 124.034C194.039 169.858 185.793 217.074 162.182 257.319C161.545 258.406 160.401 259.01 159.227 259.01Z" fill="url(#paint12_linear_329_4)"/>
<path d="M45.3338 224.226C44.3434 224.226 43.361 223.799 42.6842 222.973C41.4862 221.51 41.701 219.354 43.163 218.156C53.2986 209.854 61.1662 199.005 65.915 186.782C66.5994 185.02 68.5826 184.146 70.3446 184.831C72.1066 185.516 72.9798 187.499 72.2954 189.261C67.1202 202.58 58.5462 214.403 47.5002 223.451C46.8646 223.973 46.0966 224.226 45.3338 224.226Z" fill="url(#paint13_linear_329_4)"/>
<path d="M198.523 196.246C198.339 196.246 198.151 196.231 197.964 196.2C196.099 195.893 194.835 194.132 195.142 192.267C199.119 168.104 198.661 143.568 193.78 119.344L193.594 118.422C190.264 103.102 181.265 89.9187 168.177 81.2231C154.829 72.3555 138.827 69.2163 123.12 72.3851C107.407 75.5523 93.8698 84.6475 85.0014 97.9959C76.7058 110.481 73.4238 125.29 75.6278 140.009L76.2382 143.042C77.9174 151.384 78.3142 159.851 77.4162 168.208C77.2146 170.087 75.5262 171.447 73.6478 171.245C71.7682 171.044 70.4086 169.356 70.6106 167.477C71.313 160.936 71.1506 154.318 70.1282 147.756L69.4538 144.412C65.9226 126.909 69.4198 109.079 79.3002 94.2079C89.181 79.3367 104.263 69.2035 121.767 65.6751C139.267 62.1455 157.095 65.6423 171.965 75.5219C186.837 85.4023 196.969 100.482 200.497 117.984L200.818 119.58L200.807 119.593C205.554 144.113 205.922 168.927 201.897 193.379C201.621 195.056 200.169 196.246 198.523 196.246Z" fill="url(#paint14_linear_329_4)"/>
<path d="M180.444 252.934C179.941 252.934 179.43 252.822 178.948 252.587C177.248 251.759 176.542 249.711 177.37 248.012C183.046 236.364 187.615 224.135 190.952 211.666C191.441 209.84 193.316 208.758 195.143 209.244C196.969 209.733 198.053 211.609 197.565 213.436C194.115 226.327 189.391 238.969 183.523 251.01C182.931 252.226 181.712 252.934 180.444 252.934Z" fill="url(#paint15_linear_329_4)"/>
<path d="M202.488 241.913C202.081 241.913 201.668 241.839 201.266 241.686C199.5 241.011 198.616 239.032 199.292 237.266C213.938 198.979 217.456 157.438 209.483 117.076L209.306 116.21C207.124 105.393 202.749 95.4197 196.304 86.5697C195.191 85.0417 195.527 82.9009 197.055 81.7881C198.584 80.6749 200.724 81.0121 201.837 82.5397C208.585 91.8053 213.251 102.196 215.718 113.443L215.732 113.452L216.021 114.86C224.473 156.765 220.899 199.938 205.685 239.711C205.164 241.075 203.865 241.913 202.488 241.913Z" fill="url(#paint16_linear_329_4)"/>
<path d="M185.224 73.3323C184.461 73.3327 183.694 73.0787 183.058 72.5579C165.367 58.0719 142.379 52.3519 119.985 56.8651C114.222 58.0259 108.614 59.8459 103.317 62.2739C101.599 63.0611 99.5679 62.3071 98.7799 60.5887C97.9923 58.8707 98.7467 56.8391 100.465 56.0511C106.241 53.4035 112.354 51.4195 118.633 50.1547C143.045 45.2327 168.109 51.4691 187.394 67.2619C188.857 68.4595 189.071 70.6159 187.873 72.0783C187.197 72.9047 186.214 73.3323 185.224 73.3323Z" fill="url(#paint17_linear_329_4)"/>
<path d="M34.8336 212.337C33.832 212.337 32.8396 211.899 32.1632 211.058C30.9792 209.584 31.2144 207.43 32.6876 206.246C49.5684 192.685 57.7664 171.422 54.4708 150.217L53.9312 147.541C47.834 117.304 58.9336 86.43 82.898 66.968C84.3656 65.7764 86.5212 66 87.7124 67.4672C88.9044 68.9348 88.6808 71.09 87.2132 72.2816C66.0244 89.4888 55.7996 116.42 60.0964 143.179L60.7008 146.175C65.6628 170.776 56.5716 195.839 36.9748 211.582C36.3432 212.09 35.586 212.337 34.8336 212.337Z" fill="url(#paint18_linear_329_4)"/>
<path d="M25.8873 199.192C24.9165 199.192 23.9517 198.781 23.2745 197.982C22.0525 196.541 22.2305 194.381 23.6729 193.159C35.4493 183.179 41.1457 167.835 38.8249 152.698L38.4149 150.669C37.3845 145.568 36.7521 140.332 36.5345 135.107C36.4561 133.218 37.9233 131.623 39.8117 131.545C41.7001 131.471 43.2949 132.933 43.3737 134.822C43.5341 138.676 43.9369 142.535 44.5737 146.333L45.1725 149.305C48.8481 167.535 42.3053 186.34 28.0981 198.381C27.4553 198.925 26.6689 199.192 25.8873 199.192Z" fill="url(#paint19_linear_329_4)"/>
<path d="M230.346 128.137C228.679 128.137 227.218 126.917 226.965 125.218C226.441 121.698 225.838 118.175 225.167 114.723L224.824 113.081C219.985 89.0794 206.091 68.4002 185.699 54.8522C165.308 41.3042 140.86 36.5086 116.857 41.3478C98.3943 45.0702 81.7795 54.2022 68.8075 67.7562C56.1259 81.0074 47.7707 97.5234 44.6451 115.519C44.3219 117.381 42.5519 118.63 40.6871 118.305C38.8247 117.982 37.5771 116.21 37.9007 114.347C41.2599 95.0074 50.2371 77.2598 63.8619 63.023C77.8055 48.4534 95.6631 38.6374 115.504 34.637C141.299 29.437 167.573 34.591 189.487 49.1506C210.699 63.2438 225.37 84.5166 231.004 109.258L231.036 109.261L231.551 111.729C232.376 115.816 233.111 120.015 233.736 124.21C234.014 126.08 232.723 127.821 230.854 128.099C230.683 128.125 230.514 128.137 230.346 128.137Z" fill="url(#paint20_linear_329_4)"/>
<path d="M224.945 223.903C224.652 223.903 224.356 223.865 224.061 223.787C222.234 223.299 221.149 221.424 221.635 219.598C228.138 195.219 230.629 170.084 229.04 144.891C228.921 143.004 230.354 141.378 232.241 141.259C234.128 141.135 235.753 142.573 235.872 144.459C237.508 170.393 234.943 196.267 228.249 221.361C227.841 222.892 226.457 223.903 224.945 223.903Z" fill="url(#paint21_linear_329_4)"/>
<path d="M18.4107 184.449C17.5779 184.449 16.7435 184.147 16.0843 183.537C14.6983 182.251 14.6163 180.086 15.9015 178.7C21.8287 172.307 24.4923 163.515 23.1451 154.966L22.8951 153.797C16.8579 123.859 22.8407 93.3626 39.7419 67.9254C56.6423 42.489 82.4375 25.1562 112.376 19.1202C124.95 16.5842 137.708 16.1622 150.294 17.865C152.167 18.1182 153.481 19.8422 153.227 21.7154C152.974 23.5882 151.247 24.9026 149.376 24.6478C137.547 23.0478 125.554 23.445 113.728 25.8302C85.5827 31.505 61.3319 47.7998 45.4435 71.7134C29.9139 95.0858 24.1899 123.004 29.2375 150.532L29.6443 152.436C31.8739 163.5 28.6131 175.058 20.9211 183.354C20.2471 184.081 19.3303 184.449 18.4107 184.449Z" fill="url(#paint22_linear_329_4)"/>
<path d="M246.849 194.196C246.708 194.196 246.566 194.188 246.422 194.17C244.546 193.936 243.215 192.226 243.448 190.351C246.685 164.356 245.795 138.057 240.804 112.147L240.341 109.953C232.649 71.7894 204.815 40.689 167.702 28.7878C165.901 28.2102 164.91 26.2834 165.487 24.4834C166.065 22.6834 167.993 21.6934 169.792 22.2694C208.222 34.593 237.299 66.2762 246.358 105.401L246.404 105.393L247.08 108.595C252.598 135.941 253.661 163.732 250.241 191.197C250.026 192.928 248.551 194.196 246.849 194.196Z" fill="url(#paint23_linear_329_4)"/>
</g>
<defs>
<filter id="filter0_d_329_4" x="0.782715" y="0.982422" width="268.447" height="268.326" filterUnits="userSpaceOnUse" color-interpolation-filters="sRGB">
<feFlood flood-opacity="0" result="BackgroundImageFix"/>
<feColorMatrix in="SourceAlpha" type="matrix" values="0 0 0 0 0 0 0 0 0 0 0 0 0 0 0 0 0 0 127 0" result="hardAlpha"/>
<feOffset dy="4"/>
<feGaussianBlur stdDeviation="2"/>
<feComposite in2="hardAlpha" operator="out"/>
<feColorMatrix type="matrix" values="0 0 0 0 0 0 0 0 0 0 0 0 0 0 0 0 0 0 0.25 0"/>
<feBlend mode="normal" in2="BackgroundImageFix" result="effect1_dropShadow_329_4"/>
<feBlend mode="normal" in="SourceGraphic" in2="effect1_dropShadow_329_4" result="shape"/>
</filter>
<linearGradient id="paint0_linear_329_4" x1="15.1633" y1="45.6382" x2="15.1633" y2="333.802" gradientUnits="userSpaceOnUse">
<stop stop-color="#64BDF4"/>
<stop offset="1" stop-color="#EB4634"/>
</linearGradient>
<linearGradient id="paint1_linear_329_4" x1="111.679" y1="-15.0805" x2="111.679" y2="174.335" gradientUnits="userSpaceOnUse">
<stop stop-color="#64BDF4"/>
<stop offset="1" stop-color="#EB4634"/>
</linearGradient>
<linearGradient id="paint2_linear_329_4" x1="233.505" y1="0.710791" x2="233.505" y2="275.8" gradientUnits="userSpaceOnUse">
<stop stop-color="#64BDF4"/>
<stop offset="1" stop-color="#EB4634"/>
</linearGradient>
<linearGradient id="paint3_linear_329_4" x1="260.545" y1="93.3098" x2="260.545" y2="204.146" gradientUnits="userSpaceOnUse">
<stop stop-color="#64BDF4"/>
<stop offset="1" stop-color="#EB4634"/>
</linearGradient>
<linearGradient id="paint4_linear_329_4" x1="11.4043" y1="149.474" x2="11.4043" y2="188.88" gradientUnits="userSpaceOnUse">
<stop stop-color="#64BDF4"/>
<stop offset="1" stop-color="#EB4634"/>
</linearGradient>
<linearGradient id="paint5_linear_329_4" x1="120.063" y1="92.4994" x2="120.063" y2="508.397" gradientUnits="userSpaceOnUse">
<stop stop-color="#64BDF4"/>
<stop offset="1" stop-color="#EB4634"/>
</linearGradient>
<linearGradient id="paint6_linear_329_4" x1="99.6121" y1="188.476" x2="99.6121" y2="347.663" gradientUnits="userSpaceOnUse">
<stop stop-color="#64BDF4"/>
<stop offset="1" stop-color="#EB4634"/>
</linearGradient>
<linearGradient id="paint7_linear_329_4" x1="136.361" y1="71.2929" x2="136.361" y2="549.416" gradientUnits="userSpaceOnUse">
<stop stop-color="#64BDF4"/>
<stop offset="1" stop-color="#EB4634"/>
</linearGradient>
<linearGradient id="paint8_linear_329_4" x1="88.5204" y1="113.134" x2="88.5204" y2="443.739" gradientUnits="userSpaceOnUse">
<stop stop-color="#64BDF4"/>
<stop offset="1" stop-color="#EB4634"/>
</linearGradient>
<linearGradient id="paint9_linear_329_4" x1="136.709" y1="77.8651" x2="136.709" y2="291.737" gradientUnits="userSpaceOnUse">
<stop stop-color="#64BDF4"/>
<stop offset="1" stop-color="#EB4634"/>
</linearGradient>
<linearGradient id="paint10_linear_329_4" x1="153.727" y1="152.414" x2="153.727" y2="427.59" gradientUnits="userSpaceOnUse">
<stop stop-color="#64BDF4"/>
<stop offset="1" stop-color="#EB4634"/>
</linearGradient>
<linearGradient id="paint11_linear_329_4" x1="98.0326" y1="37.9948" x2="98.0326" y2="535.386" gradientUnits="userSpaceOnUse">
<stop stop-color="#64BDF4"/>
<stop offset="1" stop-color="#EB4634"/>
</linearGradient>
<linearGradient id="paint12_linear_329_4" x1="171.748" y1="39.0549" x2="171.748" y2="594.882" gradientUnits="userSpaceOnUse">
<stop stop-color="#64BDF4"/>
<stop offset="1" stop-color="#EB4634"/>
</linearGradient>
<linearGradient id="paint13_linear_329_4" x1="57.219" y1="173.789" x2="57.219" y2="301.243" gradientUnits="userSpaceOnUse">
<stop stop-color="#64BDF4"/>
<stop offset="1" stop-color="#EB4634"/>
</linearGradient>
<linearGradient id="paint14_linear_329_4" x1="136.389" y1="28.3572" x2="136.389" y2="452.61" gradientUnits="userSpaceOnUse">
<stop stop-color="#64BDF4"/>
<stop offset="1" stop-color="#EB4634"/>
</linearGradient>
<linearGradient id="paint15_linear_329_4" x1="187.353" y1="197.18" x2="187.353" y2="338.07" gradientUnits="userSpaceOnUse">
<stop stop-color="#64BDF4"/>
<stop offset="1" stop-color="#EB4634"/>
</linearGradient>
<linearGradient id="paint16_linear_329_4" x1="208.07" y1="37.28" x2="208.07" y2="554.386" gradientUnits="userSpaceOnUse">
<stop stop-color="#64BDF4"/>
<stop offset="1" stop-color="#EB4634"/>
</linearGradient>
<linearGradient id="paint17_linear_329_4" x1="143.558" y1="41.7383" x2="143.558" y2="121.576" gradientUnits="userSpaceOnUse">
<stop stop-color="#64BDF4"/>
<stop offset="1" stop-color="#EB4634"/>
</linearGradient>
<linearGradient id="paint18_linear_329_4" x1="59.9438" y1="26.3449" x2="59.9438" y2="496.346" gradientUnits="userSpaceOnUse">
<stop stop-color="#64BDF4"/>
<stop offset="1" stop-color="#EB4634"/>
</linearGradient>
<linearGradient id="paint19_linear_329_4" x1="34.3213" y1="113.091" x2="34.3213" y2="330.669" gradientUnits="userSpaceOnUse">
<stop stop-color="#64BDF4"/>
<stop offset="1" stop-color="#EB4634"/>
</linearGradient>
<linearGradient id="paint20_linear_329_4" x1="135.812" y1="6.6231" x2="135.812" y2="313.689" gradientUnits="userSpaceOnUse">
<stop stop-color="#64BDF4"/>
<stop offset="1" stop-color="#EB4634"/>
</linearGradient>
<linearGradient id="paint21_linear_329_4" x1="228.935" y1="118.709" x2="228.935" y2="384.535" gradientUnits="userSpaceOnUse">
<stop stop-color="#64BDF4"/>
<stop offset="1" stop-color="#EB4634"/>
</linearGradient>
<linearGradient id="paint22_linear_329_4" x1="84.1241" y1="-28.8733" x2="84.1241" y2="510.192" gradientUnits="userSpaceOnUse">
<stop stop-color="#64BDF4"/>
<stop offset="1" stop-color="#EB4634"/>
</linearGradient>
<linearGradient id="paint23_linear_329_4" x1="208.761" y1="-24.8311" x2="208.761" y2="528.65" gradientUnits="userSpaceOnUse">
<stop stop-color="#64BDF4"/>
<stop offset="1" stop-color="#EB4634"/>
</linearGradient>
</defs>
</svg>
