<svg width="319" height="96" viewBox="0 0 319 96" fill="none" xmlns="http://www.w3.org/2000/svg">
<path d="M21.7528 62V57.3182L46.2301 21.5H21.5483V15.4545H54.821V20.1364L30.3438 55.9545H55.0256V62H21.7528ZM78.3324 62.7045C74.893 62.7045 71.9309 61.9697 69.446 60.5C66.9763 59.0152 65.0672 56.9318 63.7188 54.25C62.3854 51.553 61.7188 48.3939 61.7188 44.7727C61.7188 41.197 62.3854 38.0455 63.7188 35.3182C65.0672 32.5909 66.946 30.4621 69.3551 28.9318C71.7794 27.4015 74.6127 26.6364 77.8551 26.6364C79.8248 26.6364 81.7339 26.9621 83.5824 27.6136C85.4309 28.2652 87.09 29.2879 88.5597 30.6818C90.0294 32.0758 91.1884 33.8864 92.0369 36.1136C92.8854 38.3258 93.3097 41.0152 93.3097 44.1818V46.5909H65.5597V41.5H86.6506C86.6506 39.7121 86.2869 38.1288 85.5597 36.75C84.8324 35.3561 83.8097 34.2576 82.4915 33.4545C81.1884 32.6515 79.6581 32.25 77.9006 32.25C75.9915 32.25 74.3248 32.7197 72.9006 33.6591C71.4915 34.5833 70.4006 35.7955 69.6278 37.2955C68.8703 38.7803 68.4915 40.3939 68.4915 42.1364V46.1136C68.4915 48.447 68.9006 50.4318 69.7188 52.0682C70.5521 53.7045 71.7112 54.9545 73.196 55.8182C74.6809 56.6667 76.4157 57.0909 78.4006 57.0909C79.6884 57.0909 80.8627 56.9091 81.9233 56.5455C82.9839 56.1667 83.9006 55.6061 84.6733 54.8636C85.446 54.1212 86.0369 53.2045 86.446 52.1136L92.8778 53.2727C92.3627 55.1667 91.4384 56.8258 90.1051 58.25C88.7869 59.6591 87.1278 60.7576 85.1278 61.5455C83.143 62.3182 80.8778 62.7045 78.3324 62.7045ZM100.849 62V27.0909H107.418V32.6364H107.781C108.418 30.7576 109.539 29.2803 111.145 28.2045C112.766 27.1136 114.599 26.5682 116.645 26.5682C117.069 26.5682 117.569 26.5833 118.145 26.6136C118.736 26.6439 119.198 26.6818 119.531 26.7273V33.2273C119.259 33.1515 118.774 33.0682 118.077 32.9773C117.38 32.8712 116.683 32.8182 115.986 32.8182C114.38 32.8182 112.948 33.1591 111.69 33.8409C110.448 34.5076 109.463 35.4394 108.736 36.6364C108.009 37.8182 107.645 39.1667 107.645 40.6818V62H100.849ZM138.866 62.7045C135.594 62.7045 132.738 61.9545 130.298 60.4545C127.859 58.9545 125.965 56.8561 124.616 54.1591C123.268 51.4621 122.594 48.3106 122.594 44.7045C122.594 41.0833 123.268 37.9167 124.616 35.2045C125.965 32.4924 127.859 30.3864 130.298 28.8864C132.738 27.3864 135.594 26.6364 138.866 26.6364C142.139 26.6364 144.995 27.3864 147.435 28.8864C149.874 30.3864 151.768 32.4924 153.116 35.2045C154.465 37.9167 155.139 41.0833 155.139 44.7045C155.139 48.3106 154.465 51.4621 153.116 54.1591C151.768 56.8561 149.874 58.9545 147.435 60.4545C144.995 61.9545 142.139 62.7045 138.866 62.7045ZM138.889 57C141.01 57 142.768 56.4394 144.162 55.3182C145.556 54.197 146.586 52.7045 147.253 50.8409C147.935 48.9773 148.276 46.9242 148.276 44.6818C148.276 42.4545 147.935 40.4091 147.253 38.5455C146.586 36.6667 145.556 35.1591 144.162 34.0227C142.768 32.8864 141.01 32.3182 138.889 32.3182C136.753 32.3182 134.98 32.8864 133.571 34.0227C132.177 35.1591 131.139 36.6667 130.457 38.5455C129.791 40.4091 129.457 42.4545 129.457 44.6818C129.457 46.9242 129.791 48.9773 130.457 50.8409C131.139 52.7045 132.177 54.197 133.571 55.3182C134.98 56.4394 136.753 57 138.889 57Z" fill="white"/>
<path d="M175.422 62.1144L164 20.9453H171.214L179.639 51.8222L187.888 20.9453H194.35L202.658 51.8817L211.083 20.9453H218.297L206.875 62.1144H199.318L191.128 31.3568L182.995 62.1144H175.439H175.422Z" fill="white"/>
<path d="M216.502 53.4649C216.56 46.1692 223.657 44.6454 229.594 43.9388C234.211 43.411 237.609 43.2322 237.668 40.7634C237.609 37.7072 235.305 35.7067 231.38 35.7067C227.456 35.7067 224.459 37.9456 224.05 41.1806H217.186C217.821 34.5915 223.59 30.0029 231.489 30.0029C239.388 30.0029 244.297 34.5915 244.297 41.2402V55.3548C244.297 56.2402 244.756 56.7084 245.8 56.7084H247.47V62.1227H244.239C241.124 62.1227 239.221 60.8287 238.703 58.4791C238.586 58.1811 238.469 57.7725 238.411 57.4235C236.624 60.7776 233.276 62.7782 228.082 62.7782C221.044 62.7782 216.426 59.3049 216.485 53.4819L216.502 53.4649ZM237.668 50.4087V46.0585C236.515 47.8803 233.568 48.2975 230.345 48.7061C226.538 49.1743 223.365 49.7021 223.365 52.9967C223.365 55.7038 225.502 57.2873 229.477 57.2873C234.152 57.2873 237.668 54.5801 237.668 50.4087Z" fill="white"/>
<path d="M249.207 62.1146V18H256.011V62.1146H249.207Z" fill="white"/>
<path d="M260.286 62.1146V18H267.091V62.1146H260.286Z" fill="white"/>
<path d="M269.629 46.646C269.629 36.3537 276.267 30.0029 284.8 30.0029C293.334 30.0029 299.22 36.1749 299.395 46.2969V47.9399H276.434C276.893 53.4138 280.242 57.117 285.435 57.117C288.95 57.117 291.605 55.3548 292.649 52.239H299.287C297.725 58.9473 292.599 62.9995 285.385 62.9995C276.042 62.9995 269.638 56.1806 269.638 46.646H269.629ZM292.357 43.0534C291.488 38.5841 288.783 35.8769 284.8 35.8769C280.818 35.8769 277.762 38.5841 276.726 43.0534H292.357Z" fill="white"/>
<path d="M314.508 62.1147C307.87 62.1147 304.296 58.7605 304.296 52.5886V36.8224H298.936V30.9399H304.296V20.29H311.101V30.9314H319V36.8139H311.101V52.1033C311.101 54.7509 312.429 56.2236 314.967 56.2236H318.432V62.1062H314.508V62.1147Z" fill="white"/>
</svg>
