<?xml version="1.0" encoding="UTF-8"?>
<svg id="Layer_2" data-name="Layer 2" xmlns="http://www.w3.org/2000/svg" viewBox="0 0 184.25 184.25">
  <defs>
    <style>
      .cls-1 {
        fill: #069;
      }

      .cls-1, .cls-2, .cls-3 {
        stroke-width: 0px;
      }

      .cls-2 {
        fill: #fff;
      }

      .cls-3 {
        fill: #64bdf4;
      }
    </style>
  </defs>
  <g id="Layer_2-2" data-name="Layer 2">
    <rect class="cls-3" width="184.25" height="184.25"/>
    <g>
      <path class="cls-1" d="M54.77,75.53c-17.88.02-7.08,17.56-2.85,27.64,5.74,13.68,11.17,26.31,17.19,39.87,4.82,10.86,10.75-3.73,14.46-8.16,9.01-15.31,28.77-8.3,43.44-9.82,11.02-1.14,14.93-10.83,10.86-18.9-3.38-4.79-6.11-6.3-11.68-6.3h-36.91c-12.01,0-24.2.82-29.66-12.45l-4.85-11.89Z"/>
      <path class="cls-2" d="M122.25,65.36c-1.93-5.28-4.42-14.88-16.87-14.88-17.01,0-31.46-.09-48.29,0-5.66.02-9.23,7.02-7.39,11.91,2.8,7.41,5.17,13.41,8.01,20.4,0,0,0,0,0,.02.61,1.49,1.23,3.02,1.89,4.61,5.46,13.27,17.65,12.45,29.66,12.45h36.91c5.57,0,10.06,3.95,11.49,6.02.07.1.13.2.19.28-.45-1.08-11.05-28.3-15.62-40.81ZM69.41,71.4c-2.79,0-5.45-2.26-5.94-5.05s1.37-5.05,4.16-5.05,5.45,2.26,5.94,5.05c.49,2.79-1.37,5.05-4.16,5.05Z"/>
    </g>
  </g>
</svg>